<svg width="17" height="23" viewBox="0 0 17 23" fill="none" xmlns="http://www.w3.org/2000/svg">
<path d="M16.707 9.41016C16.707 10.6836 16.5547 11.8516 16.25 12.9141C15.9531 13.9688 15.4922 14.8828 14.8672 15.6562C14.2422 16.4297 13.4492 17.0352 12.4883 17.4727L16.6133 22.0781H11.9609L8.82031 18.2344C8.76562 18.2344 8.71875 18.2344 8.67969 18.2344C8.64062 18.2344 8.59766 18.2344 8.55078 18.2344C7.15234 18.2344 5.94141 18.0273 4.91797 17.6133C3.89453 17.1914 3.04688 16.5898 2.375 15.8086C1.71094 15.0273 1.21484 14.0938 0.886719 13.0078C0.558594 11.9219 0.394531 10.7148 0.394531 9.38672C0.394531 7.61328 0.683594 6.07031 1.26172 4.75781C1.84766 3.4375 2.74609 2.41406 3.95703 1.6875C5.16797 0.960938 6.70703 0.597656 8.57422 0.597656C10.4336 0.597656 11.9609 0.960938 13.1562 1.6875C14.3594 2.41406 15.25 3.4375 15.8281 4.75781C16.4141 6.07812 16.707 7.62891 16.707 9.41016ZM4.20312 9.41016C4.20312 10.6055 4.35156 11.6367 4.64844 12.5039C4.95312 13.3633 5.42578 14.0273 6.06641 14.4961C6.70703 14.957 7.53516 15.1875 8.55078 15.1875C9.58203 15.1875 10.418 14.957 11.0586 14.4961C11.6992 14.0273 12.1641 13.3633 12.4531 12.5039C12.75 11.6367 12.8984 10.6055 12.8984 9.41016C12.8984 7.61328 12.5625 6.19922 11.8906 5.16797C11.2188 4.13672 10.1133 3.62109 8.57422 3.62109C7.55078 3.62109 6.71484 3.85547 6.06641 4.32422C5.42578 4.78516 4.95312 5.44922 4.64844 6.31641C4.35156 7.17578 4.20312 8.20703 4.20312 9.41016Z" fill="white"/>
</svg>
